<?xml version="1.0" standalone="no"?>
<!DOCTYPE svg PUBLIC "-//W3C//DTD SVG 20010904//EN"
 "http://www.w3.org/TR/2001/REC-SVG-20010904/DTD/svg10.dtd">
<svg version="1.0" xmlns="http://www.w3.org/2000/svg"
 width="1024.000000pt" height="763.000000pt" viewBox="0 0 1024.000000 763.000000"
 preserveAspectRatio="xMidYMid meet">

<g transform="translate(0.000000,763.000000) scale(0.100000,-0.100000)"
fill="#000000" stroke="none">
<path d="M4392 7595 c-47 -26 -74 -35 -110 -35 -65 0 -112 -26 -141 -79 -20
-36 -22 -49 -14 -75 5 -17 6 -40 2 -51 -16 -41 -10 -80 14 -90 12 -6 26 -24
32 -42 18 -62 52 -28 40 39 -5 28 -2 39 24 66 17 17 31 38 31 46 0 24 41 46
85 46 24 0 59 -10 87 -25 25 -13 65 -27 87 -31 67 -11 78 -34 76 -154 -2 -126
15 -134 39 -18 9 44 17 82 18 82 64 22 95 80 63 116 -10 11 -25 20 -33 20 -11
0 -13 11 -7 59 6 54 5 60 -16 75 -13 9 -38 16 -55 16 -22 0 -45 11 -74 35 -23
19 -52 35 -63 35 -12 0 -50 -16 -85 -35z"/>
<path d="M4255 7279 c-10 -15 -7 -16 63 -23 63 -7 81 3 43 24 -26 13 -98 13
-106 -1z"/>
<path d="M4455 7249 c-9 -13 -8 -14 45 -26 25 -6 51 -12 59 -14 7 -2 16 2 18
9 10 26 -107 56 -122 31z"/>
<path d="M4296 7203 c-8 -19 8 -38 23 -29 16 10 13 46 -3 46 -8 0 -17 -8 -20
-17z"/>
<path d="M4501 7181 c-15 -10 -12 -42 5 -48 15 -5 26 25 16 42 -4 9 -12 11
-21 6z"/>
<path d="M4060 6769 c-80 -28 -150 -55 -157 -62 -17 -18 -98 -205 -150 -347
-58 -162 -118 -397 -137 -541 -21 -158 -41 -796 -25 -815 7 -9 32 -14 70 -14
46 0 59 3 63 18 3 9 30 175 61 367 52 331 80 471 95 480 3 2 28 -138 55 -311
48 -310 48 -315 31 -352 -106 -222 127 -417 659 -550 88 -22 219 -50 290 -62
l131 -23 18 -61 c34 -116 149 -392 258 -621 61 -126 111 -239 112 -250 1 -11
10 -35 21 -53 23 -38 32 -37 127 5 96 43 117 83 69 131 -10 10 -48 125 -90
277 -146 521 -216 708 -289 781 -55 54 -203 154 -317 215 -44 23 -81 43 -83
45 -2 1 27 40 64 85 83 104 160 221 231 356 l55 103 41 -63 c22 -34 98 -120
169 -190 70 -71 128 -131 128 -134 0 -3 9 -18 21 -34 16 -23 28 -29 58 -29 68
0 211 32 211 47 0 2 -7 19 -14 38 -10 23 -22 35 -35 35 -11 0 -22 9 -26 20 -3
11 -11 20 -16 20 -5 0 -9 7 -9 15 0 19 -175 325 -256 445 -90 134 -145 194
-209 226 -64 31 -107 29 -182 -7 -55 -27 -180 -143 -265 -246 -33 -40 -63 -73
-67 -73 -13 0 -52 243 -61 379 -8 120 -2 391 8 391 2 0 51 -44 107 -98 112
-108 162 -138 261 -155 54 -9 83 -8 172 7 122 20 301 70 422 117 l82 31 -7 35
c-6 32 -4 35 12 28 48 -20 58 -16 114 42 31 32 73 82 93 111 l38 52 -67 30
-67 30 -34 -26 c-32 -25 -34 -28 -18 -45 22 -24 10 -39 -29 -33 -28 4 -38 -1
-79 -41 -51 -50 -54 -55 -37 -72 8 -8 3 -13 -18 -17 -64 -13 -177 -26 -339
-36 -156 -11 -174 -10 -205 5 -104 53 -262 200 -350 324 -24 34 -53 64 -64 66
-11 3 -74 12 -141 20 l-121 16 -35 -35 c-53 -53 -114 -45 -171 24 -14 16 -27
30 -29 29 -2 0 -68 -23 -148 -50z"/>
<path d="M6806 6683 c5 -43 9 -116 8 -162 l0 -83 32 5 c32 5 35 3 86 -74 29
-43 58 -78 65 -76 15 3 532 350 533 358 0 4 -695 109 -724 109 -5 0 -5 -34 0
-77z"/>
<path d="M1893 6622 c-12 -9 -27 -30 -33 -46 -33 -89 74 -173 154 -121 54 35
58 126 9 165 -32 25 -99 27 -130 2z m114 -17 c41 -29 38 -98 -6 -132 -37 -29
-103 -5 -121 43 -11 28 2 71 28 90 23 18 73 17 99 -1z"/>
<path d="M1390 6460 c0 -22 5 -40 10 -40 6 0 10 18 10 40 0 22 -4 40 -10 40
-5 0 -10 -18 -10 -40z"/>
<path d="M1290 6390 c0 -5 20 -10 45 -10 25 0 45 5 45 10 0 6 -20 10 -45 10
-25 0 -45 -4 -45 -10z"/>
<path d="M1420 6390 c0 -5 23 -10 51 -10 31 0 48 4 44 10 -3 6 -26 10 -51 10
-24 0 -44 -4 -44 -10z"/>
<path d="M1390 6315 c0 -25 5 -45 10 -45 6 0 10 20 10 45 0 25 -4 45 -10 45
-5 0 -10 -20 -10 -45z"/>
<path d="M2340 6275 c-31 -37 26 -139 165 -295 36 -41 79 -97 95 -125 32 -56
84 -194 76 -202 -2 -3 -24 14 -48 37 -58 57 -153 118 -195 126 -47 9 -85 -9
-81 -39 4 -30 73 -74 197 -127 169 -71 154 -52 248 -315 46 -127 84 -235 85
-242 6 -26 -15 -11 -61 45 -155 186 -401 305 -479 232 -31 -29 -27 -58 13 -96
51 -48 141 -95 291 -153 74 -29 163 -73 207 -101 75 -50 76 -51 98 -120 17
-52 28 -70 41 -70 15 0 11 16 -28 128 -26 70 -55 152 -66 182 -33 93 -7 185
114 404 82 148 118 239 118 299 0 50 -13 67 -52 67 -45 0 -83 -25 -117 -78
-63 -99 -101 -260 -101 -433 0 -60 -3 -109 -7 -109 -5 0 -39 86 -76 190 -54
149 -67 197 -62 223 3 17 38 96 77 173 79 160 96 227 59 239 -70 22 -134 -112
-149 -312 l-7 -88 -16 45 c-9 25 -22 74 -28 110 -28 145 -134 346 -210 397
-39 26 -83 30 -101 8z"/>
<path d="M8230 6071 c0 -28 5 -51 10 -51 6 0 10 20 10 44 0 25 -4 48 -10 51
-6 4 -10 -13 -10 -44z"/>
<path d="M930 6062 c-109 -34 -120 -273 -24 -528 68 -184 68 -225 1 -326 -37
-55 -42 -70 -42 -118 1 -69 33 -139 92 -197 23 -24 37 -43 30 -43 -35 0 -129
78 -292 244 -183 186 -250 236 -315 236 -95 0 -128 -140 -74 -312 43 -137 106
-249 227 -408 111 -144 131 -233 83 -367 -14 -40 -26 -81 -26 -92 0 -35 30
-104 67 -153 51 -66 116 -109 241 -159 81 -33 117 -54 154 -89 l48 -46 2 560
3 561 258 3 258 2 -21 30 c-49 68 -63 178 -39 306 6 32 12 91 12 129 2 99 -17
127 -130 190 -136 75 -193 139 -288 323 -102 198 -167 272 -225 254z"/>
<path d="M8120 6000 c0 -5 20 -10 45 -10 25 0 45 5 45 10 0 6 -20 10 -45 10
-25 0 -45 -4 -45 -10z"/>
<path d="M8265 6000 c3 -5 24 -10 46 -10 21 0 39 5 39 10 0 6 -21 10 -46 10
-27 0 -43 -4 -39 -10z"/>
<path d="M8230 5935 c0 -25 5 -45 10 -45 6 0 10 20 10 45 0 25 -4 45 -10 45
-5 0 -10 -20 -10 -45z"/>
<path d="M7633 5526 c-59 -28 -107 -85 -124 -150 -15 -54 -14 -192 1 -258 32
-134 113 -247 192 -269 59 -16 131 -2 186 34 81 55 127 170 139 353 10 149
-35 241 -142 290 -71 34 -180 33 -252 0z m327 -122 c8 -8 9 -22 1 -50 -9 -32
-7 -43 11 -75 24 -44 22 -83 -12 -172 -15 -41 -25 -55 -33 -49 -14 11 -304 9
-327 -2 -13 -5 -21 8 -38 64 -34 103 -33 145 2 173 28 23 28 24 12 55 -22 42
-20 49 12 61 37 14 357 10 372 -5z m-90 -389 c46 -55 -98 -112 -179 -71 -47
25 -57 43 -36 66 16 17 31 20 110 20 69 0 96 -4 105 -15z"/>
<path d="M7613 5263 c-7 -2 -13 -12 -13 -21 0 -14 9 -16 60 -14 51 3 60 7 60
23 0 16 -7 19 -47 18 -27 0 -54 -3 -60 -6z"/>
<path d="M7824 5259 c-11 -18 8 -27 69 -31 49 -4 57 -2 57 13 0 9 -7 20 -16
23 -26 10 -102 7 -110 -5z"/>
<path d="M7645 5190 c-8 -27 10 -49 26 -33 13 13 8 45 -8 50 -6 2 -14 -6 -18
-17z"/>
<path d="M7862 5193 c-12 -22 -5 -43 14 -43 8 0 14 10 14 24 0 31 -16 42 -28
19z"/>
<path d="M3196 5320 c-65 -57 -116 -197 -136 -372 -14 -123 -16 -118 28 -118
36 0 38 2 74 78 21 42 60 120 88 172 56 106 80 193 64 237 -8 23 -16 29 -46
31 -29 2 -43 -3 -72 -28z"/>
<path d="M8724 5230 c-51 -20 -71 -104 -38 -155 19 -29 72 -48 108 -39 40 10
76 59 76 102 -1 75 -74 121 -146 92z m79 -21 c44 -20 59 -77 31 -117 -32 -46
-97 -48 -130 -4 -22 28 -17 80 11 107 26 27 51 31 88 14z"/>
<path d="M5830 5073 c-32 -26 -32 -26 -98 -13 -87 17 -92 11 -92 -127 l0 -103
301 0 300 0 -3 27 c-2 19 -12 32 -33 42 -16 7 -51 24 -76 37 -64 33 -96 31
-136 -8 -28 -27 -33 -29 -39 -15 -3 10 1 29 11 45 l16 27 -25 -27 c-28 -31
-46 -36 -46 -13 0 8 -7 15 -15 15 -25 0 -17 32 15 65 l30 31 -39 22 -39 22
-32 -27z"/>
<path d="M5924 4988 l-19 -23 23 19 c12 11 22 21 22 23 0 8 -8 2 -26 -19z"/>
<path d="M2520 4943 c-30 -12 -50 -37 -50 -63 0 -47 12 -50 185 -50 l160 1
-25 21 c-66 55 -225 109 -270 91z"/>
<path d="M7510 4711 c-69 -36 -160 -88 -203 -114 -76 -48 -77 -49 -247 -293
-93 -135 -170 -252 -170 -260 0 -16 89 -377 95 -382 1 -2 40 56 85 127 45 72
84 131 86 131 3 0 2 -285 -2 -634 l-7 -634 58 -12 58 -12 -7 -151 c-22 -497
-24 -653 -20 -1223 6 -689 3 -655 67 -695 28 -17 45 -19 127 -15 140 6 173 11
222 35 71 34 117 86 136 155 l16 59 26 -31 c20 -25 29 -29 38 -20 22 22 14 75
-13 96 -14 11 -25 28 -25 38 0 21 56 124 68 124 4 0 6 -81 4 -180 -3 -172 -3
-182 19 -216 29 -48 71 -64 166 -64 88 0 134 17 167 63 20 27 21 39 17 262
l-3 234 28 7 c70 15 104 27 173 62 l75 37 18 65 c10 36 18 96 18 133 0 127 41
178 250 315 256 167 410 351 410 487 0 43 -5 57 -26 79 -23 22 -35 26 -85 26
-76 0 -119 -15 -329 -116 -96 -46 -180 -84 -186 -84 -8 0 -4 14 8 38 13 26 18
49 14 77 -21 153 -20 172 8 219 15 26 59 81 99 124 144 154 216 283 224 400 4
58 2 71 -17 95 -45 57 -122 32 -268 -89 -69 -56 -92 -80 -87 -93 21 -53 45
-162 45 -201 0 -25 -12 -81 -26 -125 -15 -44 -29 -86 -30 -92 -5 -20 -22 -15
-35 9 -9 16 -9 37 1 88 15 79 7 149 -20 182 l-19 23 -1 -67 c0 -75 -6 -98 -25
-98 -14 0 -53 93 -62 148 -4 24 -10 31 -20 27 -8 -3 -25 -8 -37 -11 l-22 -5
-11 558 c-6 307 -8 563 -6 570 3 6 27 17 55 23 62 13 137 52 174 91 l28 29
-38 78 c-44 88 -147 249 -216 337 -26 33 -53 70 -59 83 -15 29 -109 90 -271
178 -102 55 -125 63 -132 51 -14 -27 -74 -57 -111 -57 -28 0 -45 9 -78 40 -23
22 -43 39 -43 39 -1 -1 -57 -31 -126 -68z m303 -2198 c4 -38 9 -121 13 -185 6
-110 6 -118 -12 -124 -10 -4 -43 -17 -73 -30 -30 -14 -56 -22 -59 -20 -5 6 16
356 24 399 5 25 9 27 53 27 l48 0 6 -67z"/>
<path d="M2060 4603 c-14 -2 -47 -11 -74 -20 -129 -41 -208 -190 -252 -477
-31 -204 -3 -271 129 -310 l42 -12 -75 -23 c-148 -45 -161 -54 -220 -144 -77
-116 -164 -292 -202 -405 -27 -81 -32 -113 -32 -192 -1 -90 1 -99 36 -173 46
-95 171 -278 182 -266 2 2 -11 90 -30 194 -18 105 -33 204 -34 221 0 32 34 74
61 74 8 0 32 41 58 100 25 54 48 97 53 94 4 -3 8 -34 8 -68 0 -35 3 -78 6 -95
l7 -31 358 0 c198 0 359 1 360 3 0 1 6 47 13 102 l12 100 27 -52 c15 -29 36
-75 47 -102 10 -27 30 -61 44 -75 15 -14 26 -31 26 -37 0 -7 -18 -118 -41
-247 -22 -129 -38 -236 -36 -239 8 -7 150 163 187 224 49 80 79 176 80 248 0
155 -80 376 -222 613 l-62 102 -93 30 c-50 16 -110 33 -132 36 -47 8 -45 24 3
24 82 0 111 67 121 285 7 166 -5 244 -58 357 -54 116 -100 149 -222 161 -27 3
-61 3 -75 0z m-45 -303 c58 0 75 8 75 34 0 11 4 27 9 35 6 10 11 4 16 -20 9
-43 19 -49 78 -49 43 0 47 2 47 24 0 14 5 28 10 31 6 4 10 -5 10 -20 0 -18 6
-29 20 -32 18 -5 20 -14 20 -74 0 -67 13 -96 31 -68 5 8 9 24 9 36 0 31 20 40
37 17 9 -12 13 -33 10 -57 -6 -45 -55 -120 -73 -113 -8 3 -23 -14 -39 -47 -15
-29 -40 -66 -56 -82 -24 -26 -29 -39 -29 -81 0 -42 -5 -55 -27 -76 -61 -56
-112 -57 -163 -3 -19 20 -22 31 -17 68 6 42 4 47 -37 88 -53 54 -86 137 -93
235 -8 106 1 140 37 148 17 3 32 11 35 18 2 7 10 27 16 43 l12 30 9 -42 c9
-43 10 -43 53 -43z"/>
<path d="M1962 4280 c-19 -4 -39 -13 -45 -20 -10 -10 0 -11 43 -6 61 8 65 10
55 25 -7 12 -6 12 -53 1z"/>
<path d="M2134 4278 c-9 -14 -4 -16 54 -24 36 -4 52 -3 52 5 0 6 -3 11 -7 11
-5 1 -27 5 -51 9 -25 5 -45 5 -48 -1z"/>
<path d="M1953 4194 c-3 -8 1 -23 10 -32 15 -14 17 -14 23 1 8 21 -1 47 -16
47 -6 0 -13 -7 -17 -16z"/>
<path d="M2172 4185 c2 -14 8 -26 13 -26 6 0 11 12 13 26 2 18 -1 25 -13 25
-12 0 -15 -7 -13 -25z"/>
<path d="M5691 3590 c-5 -3 -16 -19 -25 -37 -15 -31 -60 -53 -108 -53 -9 0
-23 -7 -31 -15 -19 -19 -8 -63 39 -157 l34 -68 68 25 c399 150 466 180 470
213 6 44 -12 52 -119 52 -86 0 -102 -3 -119 -20 -11 -11 -20 -28 -20 -39 0
-10 -7 -24 -15 -31 -21 -17 -32 14 -17 52 5 15 6 26 1 23 -5 -3 -12 -20 -17
-38 -9 -34 -42 -51 -42 -22 0 14 -3 15 -15 5 -12 -10 -16 -9 -22 5 -6 16 -2
30 21 86 6 14 0 18 -34 21 -22 2 -45 1 -49 -2z"/>
<path d="M2030 2523 c-83 -15 -165 -61 -189 -107 -14 -25 -18 -26 -95 -26 -73
0 -82 2 -108 27 -16 15 -28 38 -29 52 -1 25 -1 25 -11 -4 -6 -16 -21 -41 -34
-55 -12 -14 -33 -47 -45 -74 -39 -90 -24 -249 32 -327 10 -14 43 -41 74 -60
30 -18 55 -37 55 -41 0 -4 -11 -61 -25 -125 -33 -152 -86 -427 -120 -618 -39
-223 -46 -255 -55 -255 -7 0 -30 -53 -30 -70 0 -9 2 -10 112 -51 l78 -28 15
29 c8 16 15 38 15 49 0 28 258 686 266 678 11 -11 101 -969 96 -1025 l-4 -53
104 3 103 3 -1 45 c-1 25 7 133 17 240 57 590 79 1000 62 1152 l-9 77 76 -2
c103 -2 145 19 183 93 35 70 37 144 3 216 -13 28 -27 66 -31 85 -14 71 -15 72
-34 55 -25 -22 -29 -21 -122 28 -133 71 -266 104 -349 89z"/>
<path d="M264 2335 c-21 -33 -12 -83 28 -155 57 -102 145 -196 259 -276 79
-56 106 -81 96 -90 -3 -3 -23 4 -44 15 -93 47 -278 71 -330 43 -36 -20 -48
-51 -28 -71 14 -14 42 -16 214 -13 108 2 208 -1 222 -6 24 -10 309 -269 309
-283 0 -3 -39 10 -87 31 -196 84 -416 111 -514 62 -76 -37 -88 -96 -26 -130
28 -15 54 -16 192 -13 396 10 457 8 503 -15 82 -42 46 9 -113 156 -85 79 -156
144 -156 145 -1 0 -5 83 -8 185 -7 200 -15 230 -57 230 -60 0 -69 -130 -18
-271 14 -39 23 -73 20 -76 -10 -10 -129 112 -167 171 -22 32 -66 114 -98 182
-88 179 -156 241 -197 179z"/>
<path d="M1073 1953 c-27 -41 -24 -235 4 -318 l21 -60 1 203 c1 111 -1 202 -4
202 -2 0 -13 -12 -22 -27z"/>
<path d="M8765 1305 c-50 -49 -20 -125 48 -125 41 0 77 35 77 74 0 34 -41 76
-75 76 -14 0 -37 -11 -50 -25z"/>
<path d="M9104 1307 c-55 -47 -26 -127 46 -127 56 0 88 45 69 98 -10 28 -44
52 -74 52 -8 0 -26 -11 -41 -23z"/>
<path d="M9435 1305 c-30 -30 -32 -64 -4 -99 41 -53 129 -23 129 44 0 38 -39
80 -75 80 -14 0 -37 -11 -50 -25z"/>
<path d="M9776 1309 c-33 -26 -36 -79 -5 -110 47 -47 141 2 125 65 -15 62 -72
83 -120 45z"/>
<path d="M10119 1317 c-58 -44 -36 -137 32 -137 41 0 58 9 75 42 18 35 11 61
-23 88 -29 23 -60 25 -84 7z"/>
<path d="M885 1211 c-60 -11 -101 -36 -115 -71 -12 -29 -11 -33 11 -56 33 -33
125 -48 234 -39 l85 7 0 73 c0 41 -3 76 -7 78 -16 9 -169 15 -208 8z"/>
<path d="M8425 835 c-30 -30 -32 -64 -4 -99 43 -54 129 -23 129 47 0 69 -77
101 -125 52z"/>
<path d="M8765 835 c-32 -31 -33 -74 -2 -103 72 -67 172 34 102 103 -13 14
-36 25 -50 25 -14 0 -37 -11 -50 -25z"/>
<path d="M9103 840 c-31 -28 -36 -55 -18 -89 42 -83 170 -25 135 60 -22 51
-79 65 -117 29z"/>
<path d="M9435 835 c-30 -30 -32 -64 -4 -99 15 -19 30 -26 54 -26 70 0 103 87
49 129 -35 28 -69 26 -99 -4z"/>
<path d="M9772 837 c-47 -50 -15 -127 51 -127 44 0 71 30 71 77 0 66 -77 98
-122 50z"/>
<path d="M10109 841 c-48 -39 -19 -131 42 -131 41 0 58 9 74 41 20 38 19 42
-11 78 -30 36 -70 41 -105 12z"/>
<path d="M1421 773 c-27 -14 -31 -19 -19 -27 26 -19 50 -65 44 -82 -5 -14 -9
-14 -22 -3 -14 11 -15 10 -12 -6 4 -26 -28 -32 -36 -7 -4 11 -16 28 -27 38
-20 18 -20 17 1 -19 18 -30 20 -41 11 -50 -10 -9 -16 -7 -27 8 -41 57 -43 58
-97 51 -66 -9 -92 -26 -107 -70 -22 -67 6 -83 180 -106 47 -6 123 -10 170 -8
l84 3 24 70 c13 39 24 92 25 119 2 48 1 50 -28 56 -16 4 -43 14 -60 22 -51 26
-69 28 -104 11z"/>
<path d="M1385 700 c10 -11 20 -20 23 -20 3 0 -3 9 -13 20 -10 11 -20 20 -23
20 -3 0 3 -9 13 -20z"/>
<path d="M7314 436 c-19 -14 -19 -15 4 -38 12 -14 22 -31 22 -39 0 -17 -37
-42 -50 -34 -6 4 -10 -1 -10 -9 0 -22 -10 -20 -41 10 -24 23 -30 25 -65 14
-53 -14 -127 -52 -131 -66 -2 -7 4 -20 14 -29 16 -17 36 -18 236 -12 119 3
222 9 227 12 6 3 10 44 10 91 0 96 -3 100 -71 85 -38 -9 -48 -8 -71 9 -32 24
-48 25 -74 6z"/>
<path d="M8120 440 c-14 -4 -40 -8 -57 -9 l-33 -1 0 -62 c0 -35 3 -79 6 -100
l6 -36 112 -17 c61 -9 138 -15 171 -13 l60 3 0 40 c0 33 -5 43 -34 62 -42 28
-82 29 -106 3 -20 -22 -40 -17 -30 7 4 12 2 13 -7 5 -10 -8 -20 -4 -38 15
l-25 26 34 27 33 28 -23 16 c-25 17 -32 18 -69 6z"/>
<path d="M2145 390 c-11 -5 -34 -9 -51 -9 -54 -1 -59 -17 -44 -136 15 -118 1
-105 130 -125 92 -14 283 -13 298 2 18 18 15 73 -6 98 -18 22 -81 50 -115 50
-9 0 -27 -11 -39 -25 -39 -45 -65 -25 -31 25 14 22 12 21 -16 -5 -31 -29 -32
-29 -37 -7 -4 12 -10 19 -15 16 -5 -3 -12 3 -16 12 -5 13 4 27 30 50 l37 31
-24 17 c-27 17 -69 20 -101 6z"/>
<path d="M8766 379 c-29 -23 -34 -39 -11 -39 9 0 34 -9 55 -20 28 -14 40 -27
40 -42 0 -20 1 -21 20 -3 28 25 26 70 -5 100 -30 30 -64 32 -99 4z"/>
<path d="M9109 390 c-9 -5 -22 -23 -28 -39 -36 -86 97 -142 137 -58 32 66 -45
134 -109 97z"/>
<path d="M9435 375 c-30 -30 -32 -64 -4 -99 42 -54 129 -19 129 51 0 22 -8 38
-26 52 -35 28 -69 26 -99 -4z"/>
<path d="M9772 377 c-47 -50 -15 -127 52 -127 26 0 40 7 56 27 57 73 -45 167
-108 100z"/>
<path d="M10109 381 c-48 -39 -19 -131 42 -131 41 0 58 9 74 41 20 38 19 42
-11 78 -30 36 -70 41 -105 12z"/>
<path d="M2249 303 c-13 -16 -12 -17 4 -4 16 13 21 21 13 21 -2 0 -10 -8 -17
-17z"/>
</g>
</svg>
