<?xml version="1.0" standalone="no"?>
<!DOCTYPE svg PUBLIC "-//W3C//DTD SVG 20010904//EN"
 "http://www.w3.org/TR/2001/REC-SVG-20010904/DTD/svg10.dtd">
<svg version="1.0" xmlns="http://www.w3.org/2000/svg"
 width="512.000000pt" height="512.000000pt" viewBox="0 0 512.000000 512.000000"
 preserveAspectRatio="xMidYMid meet">

<g transform="translate(0.000000,512.000000) scale(0.100000,-0.100000)"
fill="#000000" stroke="none">
<path d="M2480 4796 l0 -164 -34 -6 c-67 -13 -171 -74 -228 -134 -103 -108
-138 -209 -138 -400 0 -117 1 -124 25 -147 l24 -25 431 0 431 0 24 25 c24 23
25 30 25 138 0 138 -11 202 -50 285 -55 118 -200 236 -316 258 l-34 6 0 164 0
164 -80 0 -80 0 0 -164z m218 -356 c108 -54 165 -146 177 -282 l7 -78 -322 0
-322 0 7 78 c12 136 69 228 177 282 52 26 72 30 138 30 66 0 86 -4 138 -30z"/>
<path d="M2880 3200 l0 -80 -55 0 c-46 0 -60 -4 -80 -25 -25 -24 -25 -24 -25
-240 l0 -215 -80 0 -80 0 0 135 c0 131 -1 137 -25 160 l-24 25 -231 0 -231 0
-24 -25 c-24 -23 -25 -29 -25 -160 l0 -135 -294 0 c-265 0 -296 -2 -315 -18
-18 -14 -39 -82 -106 -352 -47 -184 -85 -345 -85 -358 0 -13 11 -34 25 -47
l24 -25 536 0 535 0 0 -640 0 -640 -135 0 c-131 0 -137 -1 -160 -25 -24 -23
-25 -28 -25 -175 0 -147 1 -152 25 -175 l24 -25 511 0 511 0 24 25 c24 23 25
28 25 175 0 147 -1 152 -25 175 -23 24 -29 25 -160 25 l-135 0 0 640 0 640
535 0 536 0 24 25 c14 13 25 34 25 47 0 13 -38 174 -85 358 -67 270 -88 338
-106 352 -19 16 -48 18 -275 18 l-254 0 0 215 c0 216 0 216 -25 240 -20 21
-34 25 -80 25 l-55 0 0 80 0 80 -80 0 -80 0 0 -80z m793 -952 c32 -128 57
-236 57 -240 0 -5 -101 -8 -225 -8 l-225 0 0 160 0 160 -80 0 -80 0 0 -160 0
-160 -240 0 -240 0 0 160 0 160 -80 0 -80 0 0 -160 0 -160 -240 0 -240 0 0
160 0 160 -80 0 -80 0 0 -160 0 -160 -225 0 c-124 0 -225 3 -225 8 0 4 25 112
57 240 l58 232 1055 0 1055 0 58 -232z"/>
<path d="M185 3015 c-14 -13 -25 -32 -25 -43 0 -10 34 -304 75 -653 69 -582
74 -635 58 -644 -53 -32 -53 -32 -53 -234 0 -225 3 -232 92 -241 l54 -5 -73
-470 c-40 -259 -72 -480 -73 -493 0 -13 11 -34 25 -47 24 -25 26 -25 215 -25
185 0 192 1 213 22 20 20 28 57 62 281 l39 257 246 0 246 0 39 -257 c34 -224
42 -261 62 -280 21 -22 28 -23 213 -23 189 0 191 0 215 25 14 13 25 34 25 47
-1 13 -33 234 -73 493 l-73 470 54 5 c89 9 92 16 92 242 0 187 0 189 -25 213
l-24 25 -541 0 c-297 0 -540 3 -540 6 0 4 -34 291 -75 640 -41 348 -75 641
-75 649 0 9 -11 27 -25 40 -23 24 -28 25 -175 25 -147 0 -152 -1 -175 -25z
m1029 -1837 c5 -23 46 -284 46 -293 0 -3 -99 -5 -220 -5 -121 0 -220 2 -220 5
0 9 41 270 46 293 4 22 6 22 174 22 168 0 170 0 174 -22z"/>
<path d="M4585 3015 c-14 -13 -25 -30 -25 -38 0 -7 -34 -300 -75 -650 -41
-350 -75 -638 -75 -641 0 -4 -243 -6 -540 -6 l-541 0 -24 -25 c-25 -24 -25
-26 -25 -213 0 -226 3 -233 92 -242 l54 -5 -73 -470 c-40 -259 -72 -480 -73
-493 0 -13 11 -34 25 -47 24 -25 26 -25 215 -25 185 0 192 1 213 22 20 20 28
57 62 280 l39 258 246 0 246 0 39 -257 c34 -224 42 -261 62 -281 21 -21 28
-22 213 -22 189 0 191 0 215 25 14 13 25 34 25 47 -1 13 -33 234 -73 493 l-73
470 54 5 c89 9 92 16 92 241 0 202 0 202 -53 234 -16 9 -11 62 58 644 41 349
75 643 75 653 0 11 -11 30 -25 43 -23 24 -28 25 -175 25 -147 0 -152 -1 -175
-25z m-331 -1837 c5 -23 46 -284 46 -293 0 -3 -99 -5 -220 -5 -121 0 -220 2
-220 5 0 9 41 270 46 293 4 22 6 22 174 22 168 0 170 0 174 -22z"/>
</g>
</svg>
